# xmcd
#
# Track frame offsets:
#	150
#	15338
#	34748
#	58795
#	77789
#	95913
#	112895
#	132260
#	150108
#	167690
#
# Disc length: 2560 seconds
#
# Revision: 1
# Processed by: cddbd v1.5.1PL0 Copyright (c) Steve Scherf et al.
# Submitted via: dBpowerAMP V4.0
#
DISCID=6f09fe0a
DTITLE=Deportees - All Prayed Up
DYEAR=2004
DGENRE=Rock
TTITLE0=Not Tonight
TTITLE1=Arrest Me 'til it Hurts
TTITLE2=It Don't Seem Right
TTITLE3=Baby Don't Count Me Out
TTITLE4=Don't Cross My Landscape
TTITLE5=Cry Cry Cry
TTITLE6=Nothing Wants You Back
TTITLE7=Won't You Tell Him 
TTITLE8=Champagne Eyes
TTITLE9=Streets of You
EXTD=A mix of country and soul
EXTT0=
EXTT1=
EXTT2=
EXTT3=
EXTT4=
EXTT5=
EXTT6=
EXTT7=
EXTT8=
EXTT9=
PLAYORDER=
